2015043_C5_05_grf
version=1
nRows=12
nColumns=19
inDegrees=no
endheader
time	ground_force_1_vx	ground_force_1_vy	ground_force_1_vz	ground_force_1_px	ground_force_1_py	ground_force_1_pz	ground_force_1_mx	ground_force_1_my	ground_force_1_mz	ground_force_2_vx	ground_force_2_vy	ground_force_2_vz	ground_force_2_px	ground_force_2_py	ground_force_2_pz	ground_force_2_mx	ground_force_2_my	ground_force_2_mz
      0.41700000	      0.00000000	      0.00000000	      0.00000000	      0.00000000	      0.00000000	      0.00000000	      0.00000000	      0.00000000	      0.00000000	     -5.51398424	    625.25048107	    -31.13392927	     -0.72560779	      0.00000000	      0.34735336	      0.00000000	      1.49646859	     -0.00000000
      0.41800000	      0.00000000	      0.00000000	      0.00000000	      0.00000000	      0.00000000	      0.00000000	      0.00000000	      0.00000000	      0.00000000	     -5.06144576	    627.39819288	    -31.15847521	     -0.72552975	      0.00000000	      0.34727550	      0.00000000	      1.51037629	      0.00000000
      0.41900000	      0.00000000	      0.00000000	      0.00000000	      0.00000000	      0.00000000	      0.00000000	      0.00000000	      0.00000000	      0.00000000	     -4.60713077	    629.56726179	    -31.17900901	     -0.72545295	      0.00000000	      0.34719664	      0.00000000	      1.52477391	     -0.00000000
      0.42000000	      0.00000000	      0.00000000	      0.00000000	      0.00000000	      0.00000000	      0.00000000	      0.00000000	      0.00000000	      0.00000000	     -4.15119063	    631.75309449	    -31.19646199	     -0.72537713	      0.00000000	      0.34711701	      0.00000000	      1.53953565	      0.00000000
      0.42100000	      0.00000000	      0.00000000	      0.00000000	      0.00000000	      0.00000000	      0.00000000	      0.00000000	      0.00000000	      0.00000000	     -3.69294558	    633.95937905	    -31.21024091	     -0.72530254	      0.00000000	      0.34703649	      0.00000000	      1.55471728	     -0.00000000
      0.42200000	      0.00000000	      0.00000000	      0.00000000	      0.00000000	      0.00000000	      0.00000000	      0.00000000	      0.00000000	      0.00000000	     -3.23262415	    636.18162274	    -31.22123890	     -0.72522890	      0.00000000	      0.34695530	      0.00000000	      1.57020497	      0.00000000
      0.42300000	      0.00000000	      0.00000000	      0.00000000	      0.00000000	      0.00000000	      0.00000000	      0.00000000	      0.00000000	      0.00000000	     -2.76940258	    638.42331246	    -31.22897539	     -0.72515644	      0.00000000	      0.34687334	      0.00000000	      1.58603806	      0.00000000
      0.42400000	      0.00000000	      0.00000000	      0.00000000	      0.00000000	      0.00000000	      0.00000000	      0.00000000	      0.00000000	      0.00000000	     -2.30361335	    640.68015665	    -31.23429604	     -0.72508492	      0.00000000	      0.34679081	      0.00000000	      1.60211743	      0.00000000
      0.42500000	      0.00000000	      0.00000000	      0.00000000	      0.00000000	      0.00000000	      0.00000000	      0.00000000	      0.00000000	      0.00000000	     -1.83430361	    642.95547456	    -31.23685345	     -0.72501455	      0.00000000	      0.34670762	      0.00000000	      1.61846953	      0.00000000
      0.42600000	      0.00000000	      0.00000000	      0.00000000	      0.00000000	      0.00000000	      0.00000000	      0.00000000	      0.00000000	      0.00000000	     -1.36192958	    645.24514228	    -31.23742528	     -0.72494508	      0.00000000	      0.34662394	      0.00000000	      1.63501191	      0.00000000
      0.42700000	      0.00000000	      0.00000000	      0.00000000	      0.00000000	      0.00000000	      0.00000000	      0.00000000	      0.00000000	      0.00000000	     -0.88541926	    647.55211025	    -31.23580851	     -0.72487674	      0.00000000	      0.34653974	      0.00000000	      1.65175753	     -0.00000000
      0.42800000	      0.00000000	      0.00000000	      0.00000000	      0.00000000	      0.00000000	      0.00000000	      0.00000000	      0.00000000	      0.00000000	     -0.40535693	    649.87255633	    -31.23268113	     -0.72480928	      0.00000000	      0.34645515	      0.00000000	      1.66863797	      0.00000000
